<?xml version="1.0" encoding="utf-8"?>
<!-- Generator: Adobe Illustrator 19.0.0, SVG Export Plug-In . SVG Version: 6.00 Build 0)  -->
<svg version="1.1" id="Layer_1" xmlns="http://www.w3.org/2000/svg" xmlns:xlink="http://www.w3.org/1999/xlink" x="0px" y="0px"
	 width="133.8px" height="68.4px" viewBox="0 0 133.8 68.4" style="enable-background:new 0 0 133.8 68.4;" xml:space="preserve">
<style type="text/css">
	.st0{fill:#C95527;}
</style>
<g id="XMLID_1303_">
	<g id="XMLID_1291_">
		<path id="XMLID_1401_" class="st0" d="M104.7,66.8c-17.9,5-35.8-3.1-35.8-3.1s11.2-16.1,29.1-21c17.9-5,35.8,3.1,35.8,3.1
			S122.6,61.8,104.7,66.8"/>
		<path id="XMLID_1400_" class="st0" d="M20,51.7c15.1,10.8,34.6,9.5,34.6,9.5s-4.9-19-20-29.8C19.5,20.5,0,21.9,0,21.9
			S4.9,40.8,20,51.7"/>
		<path id="XMLID_1399_" class="st0" d="M53.5,31.3C50.9,45.8,62.6,60,62.6,60s16-9.3,18.6-23.8C83.8,21.7,72,7.5,72,7.5
			S56.1,16.8,53.5,31.3"/>
		<path id="XMLID_1398_" class="st0" d="M48.9,41.1c-1.6-3.2-5.1-9-11.6-13.6c-4.1-3-8.2-4.5-11-5.3l4-22.1
			c3.4,1.7,7.5,4.2,11.7,7.5c4.8,3.7,8.4,7.6,11.1,10.8c-0.9,2.1-1.7,4.6-2.4,7.3C49,31.6,48.7,36.9,48.9,41.1"/>
		<path id="XMLID_1397_" class="st0" d="M82.5,47.1c2.6-2.4,7.8-6.7,15.7-8.8c4.9-1.3,9.2-1.4,12.2-1.2l4-22.1
			c-3.8,0.4-8.5,1.3-13.6,2.9c-5.8,1.9-10.5,4.2-14.2,6.3c0.1,2.3,0,4.9-0.3,7.7C85.7,38.2,84.1,43.3,82.5,47.1"/>
	</g>
</g>
</svg>
