<?xml version="1.0" encoding="utf-8"?>
<!-- Generator: Adobe Illustrator 19.0.0, SVG Export Plug-In . SVG Version: 6.00 Build 0)  -->
<svg version="1.1" id="Layer_1" xmlns="http://www.w3.org/2000/svg" xmlns:xlink="http://www.w3.org/1999/xlink" x="0px" y="0px"
	 width="137.3px" height="216px" viewBox="0 0 137.3 216" style="enable-background:new 0 0 137.3 216;" xml:space="preserve">
<style type="text/css">
	.st0{fill:#558043;}
</style>
<g id="XMLID_1619_">
	<path id="XMLID_1645_" class="st0" d="M33.7,57.7c-5.1,2.4-10.9,1-10.9,1s2.5-5.4,7.6-7.9c5.1-2.4,10.9-1,10.9-1
		S38.8,55.3,33.7,57.7"/>
	<path id="XMLID_1644_" class="st0" d="M7.6,57.7c5.1,2.4,10.9,1,10.9,1s-2.5-5.4-7.6-7.9c-5.1-2.4-10.9-1-10.9-1S2.5,55.3,7.6,57.7
		"/>
	<path id="XMLID_1643_" class="st0" d="M16.5,49.8c0,4.5,4.3,8.1,4.3,8.1s4.3-3.6,4.3-8.1c0-4.5-4.3-8.1-4.3-8.1
		S16.5,45.3,16.5,49.8"/>
	<path id="XMLID_1642_" class="st0" d="M15.7,53c-0.7-0.9-2-2.4-4.2-3.5c-1.4-0.7-2.7-0.9-3.6-1v-6.8c1.1,0.3,2.5,0.8,3.9,1.6
		c1.6,0.9,2.9,1.8,3.9,2.6c-0.2,0.7-0.3,1.5-0.3,2.3C15.2,50.2,15.4,51.8,15.7,53"/>
	<path id="XMLID_1641_" class="st0" d="M26,53c0.7-0.9,2-2.4,4.2-3.5c1.4-0.7,2.7-0.9,3.6-1v-6.8c-1.1,0.3-2.5,0.8-3.9,1.6
		C28.3,44.2,27,45.1,26,46c0.2,0.7,0.3,1.5,0.3,2.3C26.5,50.2,26.3,51.8,26,53"/>
	<path id="XMLID_1640_" class="st0" d="M20.9,59c0,0-0.7,1-8.3,1.7c0,0,7.6,6.5,15.9,0C28.4,60.7,22.2,60.1,20.9,59"/>
	<path id="XMLID_1637_" class="st0" d="M68.4,216c-11.3,0-20.5-9.2-20.5-20.5v-175C48,9.2,57.2,0,68.4,0c11.3,0,20.5,9.2,20.5,20.5
		v175C88.9,206.8,79.7,216,68.4,216 M68.4,5.9c-8,0-14.5,6.5-14.5,14.5v175c0,8,6.5,14.5,14.5,14.5c8,0,14.5-6.5,14.5-14.5v-175
		C83,12.5,76.5,5.9,68.4,5.9"/>
	<path id="XMLID_1634_" class="st0" d="M68.4,204.4c-4.8,0-8.6-3.9-8.6-8.6V20.2c0-4.8,3.9-8.6,8.6-8.6c4.8,0,8.6,3.9,8.6,8.6v175.5
		C77.1,200.5,73.2,204.4,68.4,204.4 M68.4,17.5c-1.5,0-2.7,1.2-2.7,2.7v175.5c0,1.5,1.2,2.7,2.7,2.7c1.5,0,2.7-1.2,2.7-2.7V20.2
		C71.1,18.7,69.9,17.5,68.4,17.5"/>
	<path id="XMLID_1630_" class="st0" d="M92.6,178.3c-2.8,0-5.1-0.3-6.5-0.8c-1.6-0.6-2.3-1.6-2.6-2.3c-0.2-0.5-0.7-1.6-0.6-3.3
		c0.1-0.8,0.1-1.7,0-2.5l0-0.1l0-16.8c0-0.8,0-1.2,0-1.6l0-0.7c0-1.5,0-2.8,0-3.8c0-2.7-0.1-4.4,0.7-5.8c1.5-2.9,4.4-3.2,6.6-3.4
		c1.6-0.2,3-0.3,4-1.1c2-1.7,2-5.7,1.9-10.4l0-1.3c0-1.2,0-2.9,0-5c0-9.4-0.1-21.6-0.2-25.7c-0.1-4.7-0.1-7.5,0-11.7
		c0.5-14.1,0.8-21.9,6.2-27.1c3.6-3.4,8.4-5.4,14.5-5.8l0.2,0c11.3,0,20.5,9.2,20.5,20.5v67.1l0,0.2c-0.9,7.3-4.7,25.2-19.6,34.6h0
		C109.5,176.5,99.4,178.3,92.6,178.3 M83.4,174.9c0,0,0,0.1,0,0.1C83.4,175,83.4,175,83.4,174.9 M88.9,172.2
		c3.5,0.7,15.7,0.4,25.6-5.8c12.6-8,16-23.6,16.9-30.2V69.5c0-8-6.5-14.5-14.4-14.5c-4.6,0.3-8.2,1.7-10.7,4.1
		c-3.5,3.4-3.9,9.5-4.4,23c-0.1,4.1-0.1,6.8,0,11.4c0.1,4.1,0.2,16.4,0.2,25.8c0,2.1,0,3.8,0,5l0,1.3c0,5.8,0,11.4-4,14.9
		c-2.4,2.1-5.2,2.4-7.3,2.6c-0.6,0.1-1.5,0.1-1.9,0.3c-0.1,0.6,0,1.8,0,2.9c0,1.1,0,2.4,0,4l0,0.6c0,0.4,0,0.8,0,1.6l0,16.7
		C89,170.1,89,171.1,88.9,172.2"/>
	<path id="XMLID_1626_" class="st0" d="M89.7,167c-1.4,0-2.7-0.1-4.1-0.2l-2.7-0.3l0-8.7c0-1,0-2-0.1-3c-0.1-1.4,0.2-2.5,0.9-3.4
		c1.2-2.5,4.4-2.6,6.9-2.7c1.1,0,2.2-0.1,3.3-0.3c4.6-0.7,7.2-2.8,8.3-3.6c4.1-3.2,5.9-9.1,5.9-13.1V69.2c0-4.8,3.9-8.6,8.6-8.6
		c4.8,0,8.6,3.9,8.6,8.6v62.5c0.1,3-0.1,5.9-0.8,8.8c-0.5,2.2-2.5,9.7-8.4,15.9c-6.3,6.7-13.7,8.6-17.2,9.4
		c-3.3,0.8-6.7,1.1-6.9,1.1C91.4,167,90.6,167,89.7,167 M88.9,161.1c1,0,2,0,2.9-0.1c0,0,3-0.2,5.8-0.9c3.2-0.8,9.2-2.3,14.3-7.7
		c5-5.3,6.6-11.9,6.9-13.2c0.5-2.4,0.7-4.8,0.6-7.3l0-0.1V69.2c0-1.5-1.2-2.7-2.7-2.7c-1.5,0-2.7,1.2-2.7,2.7v62.6
		c0,5.6-2.5,13.2-8.1,17.7c-2.1,1.7-5.6,4.1-11.1,4.9c-1.4,0.2-2.7,0.3-3.9,0.3c-0.7,0-1.6,0.1-2.1,0.1c0.1,1.1,0.1,2.2,0,3.2V161.1
		z M83.6,152.1C83.6,152.1,83.6,152.1,83.6,152.1C83.6,152.1,83.6,152.1,83.6,152.1"/>
	<path id="XMLID_1623_" class="st0" d="M44.8,157.6c-6.4,0-14.8-1.3-23.2-6.5c-7.9-4.9-13.8-12-17.7-21.1c-1.8-4.3-3-9-3.5-13.7
		l0-0.3V88.4c0-11.3,9.2-20.5,20.5-20.5c11.3,0,20.5,9.2,20.5,20.5l0,23.9c0.8,4,2,4.6,2.6,4.9c0.7,0.3,1.6,0.4,2.6,0.4
		c1.6,0.1,3.8,0.1,5.6,1.9c1.1,1,1.5,1.4,1.7,18.2c0.1,7.1,0.1,15.8,0,16.8l-0.2,2.3l-2.3,0.3C49.6,157.4,47.4,157.6,44.8,157.6
		 M6.3,115.8c0.4,4.1,1.5,8.1,3.1,11.8c3.4,8,8.6,14.2,15.4,18.4c8.8,5.4,17.6,5.9,23.3,5.5c0-6.5-0.1-23.2-0.5-27.9
		c-0.3,0-0.7-0.1-1.2-0.1c-1.4-0.1-3.1-0.1-4.9-1c-3.2-1.5-5.1-4.5-6-9.5l0-0.5l0-24.1c0-8-6.5-14.5-14.5-14.5
		c-8,0-14.5,6.5-14.5,14.5V115.8z"/>
	<path id="XMLID_1620_" class="st0" d="M43.5,145.2c-3.3,0-6-0.6-7.5-1c-1.9-0.5-7.5-2-12.8-6.7c-7.3-6.4-9.3-14.5-9.9-17.1
		c-0.7-2.9-1-5.8-1-8.8v-24c0-4.8,3.8-8.6,8.6-8.6c4.7,0,8.6,3.9,8.6,8.6v24.1c0,2.1,0.4,5.2,2.2,8.4c0.6,1.1,4.1,6.9,9.9,8.1
		c1.4,0.3,3,0.2,4.4,0.1c2.8-0.1,6-0.3,7.3,2.5c0.4,0.8,0.7,2.1,0.8,2.9c0.1,0.8,0.1,1.5,0.1,2.8c0,0.3,0,0.8,0,1.4
		c-0.1,1.7-0.1,2.4-0.3,3c-1,3.2-5.1,3.8-6.7,4C45.7,145.1,44.6,145.2,43.5,145.2 M20.8,84.9c-1.4,0-2.6,1.2-2.6,2.7v24.1
		c0,2.5,0.2,5,0.8,7.3c0.5,2.2,2.1,8.8,8.1,14c4.3,3.8,8.7,4.9,10.4,5.4c1.4,0.4,4.8,1.1,8.8,0.6c0.9-0.1,1.4-0.2,1.7-0.3
		c0-0.3,0-0.7,0-1c0-0.5,0-0.9,0-1.2c0-1.1,0-1.6,0-2c0-0.1,0-0.2,0-0.3c-0.5,0-1.3,0-1.8,0.1c-1.7,0.1-3.8,0.2-5.9-0.2
		c-8.2-1.6-12.7-8.9-13.9-11c-1.9-3.4-2.9-7.3-2.9-11.3V87.6C23.4,86.1,22.2,84.9,20.8,84.9"/>
</g>
</svg>
