<?xml version="1.0" encoding="utf-8"?>
<!-- Generator: Adobe Illustrator 19.0.0, SVG Export Plug-In . SVG Version: 6.00 Build 0)  -->
<svg version="1.1" id="Layer_1" xmlns="http://www.w3.org/2000/svg" xmlns:xlink="http://www.w3.org/1999/xlink" x="0px" y="0px"
	 width="220.6px" height="223.7px" viewBox="0 0 220.6 223.7" style="enable-background:new 0 0 220.6 223.7;" xml:space="preserve"
	>
<style type="text/css">
	.st0{fill:#E4531E;}
	.st1{fill:none;stroke:#ECDAC7;stroke-width:5;stroke-linecap:round;stroke-linejoin:round;stroke-miterlimit:10;}
	.st2{fill:#EEE1BF;}
	.st3{font-family:'HouseofcardsW03-Bold';}
	.st4{font-size:86.001px;}
	.st5{letter-spacing:-2;}
</style>
<g id="XMLID_1181_">
	<path id="XMLID_153_" class="st0" d="M116.7,5.5l5.7,6.7c2.6,3.1,7.1,3.9,10.6,1.9l7.7-4.4c4.5-2.6,10.3-0.5,12.1,4.4l3,8.3
		c1.4,3.8,5.3,6.1,9.3,5.4l8.7-1.5c5.1-0.9,9.8,3.1,9.8,8.2l0,8.8c0,4.1,2.9,7.5,6.9,8.2l8.7,1.6c5.1,0.9,8.2,6.2,6.4,11.1l-3,8.3
		c-1.4,3.8,0.2,8.1,3.7,10.1l7.6,4.4c4.5,2.6,5.6,8.6,2.2,12.6l-5.6,6.8c-2.6,3.1-2.6,7.6,0,10.8l5.6,6.8c3.3,4,2.3,10-2.2,12.6
		l-7.6,4.4c-3.5,2-5,6.3-3.7,10.1l3,8.3c1.8,4.9-1.3,10.2-6.4,11.1l-8.7,1.6c-4,0.7-6.9,4.2-6.9,8.2l0,8.8c0,5.2-4.7,9.1-9.8,8.2
		l-8.7-1.5c-4-0.7-7.9,1.6-9.3,5.4l-3,8.3c-1.8,4.9-7.5,7-12.1,4.4l-7.7-4.4c-3.5-2-8-1.2-10.6,1.9l-5.7,6.7c-3.4,4-9.5,4-12.8,0
		l-5.7-6.7c-2.6-3.1-7.1-3.9-10.6-1.9L80,214c-4.5,2.6-10.3,0.5-12.1-4.4l-3-8.3c-1.4-3.8-5.3-6.1-9.3-5.4l-8.7,1.5
		c-5.1,0.9-9.8-3.1-9.8-8.2l0-8.8c0-4.1-2.9-7.5-6.9-8.2l-8.7-1.6c-5.1-0.9-8.2-6.2-6.4-11.1l3-8.3c1.4-3.8-0.2-8.1-3.7-10.1
		l-7.6-4.4C2.2,134,1.1,128,4.4,124l5.6-6.8c2.6-3.1,2.6-7.6,0-10.8l-5.6-6.8c-3.3-4-2.3-10,2.2-12.6l7.6-4.4c3.5-2,5-6.3,3.7-10.1
		l-3-8.3c-1.8-4.9,1.3-10.2,6.4-11.1l8.7-1.6c4-0.7,6.9-4.2,6.9-8.2l0-8.8c0-5.2,4.7-9.1,9.8-8.2l8.7,1.5c4,0.7,7.9-1.6,9.3-5.4
		l3-8.3c1.8-4.9,7.5-7,12.1-4.4l7.7,4.4c3.5,2,8,1.2,10.6-1.9l5.7-6.7C107.2,1.5,113.4,1.5,116.7,5.5"/>
	<path id="XMLID_152_" class="st1" d="M116.7,5.5l5.7,6.7c2.6,3.1,7.1,3.9,10.6,1.9l7.7-4.4c4.5-2.6,10.3-0.5,12.1,4.4l3,8.3
		c1.4,3.8,5.3,6.1,9.3,5.4l8.7-1.5c5.1-0.9,9.8,3.1,9.8,8.2l0,8.8c0,4.1,2.9,7.5,6.9,8.2l8.7,1.6c5.1,0.9,8.2,6.2,6.4,11.1l-3,8.3
		c-1.4,3.8,0.2,8.1,3.7,10.1l7.6,4.4c4.5,2.6,5.6,8.6,2.2,12.6l-5.6,6.8c-2.6,3.1-2.6,7.6,0,10.8l5.6,6.8c3.3,4,2.3,10-2.2,12.6
		l-7.6,4.4c-3.5,2-5,6.3-3.7,10.1l3,8.3c1.8,4.9-1.3,10.2-6.4,11.1l-8.7,1.6c-4,0.7-6.9,4.2-6.9,8.2l0,8.8c0,5.2-4.7,9.1-9.8,8.2
		l-8.7-1.5c-4-0.7-7.9,1.6-9.3,5.4l-3,8.3c-1.8,4.9-7.5,7-12.1,4.4l-7.7-4.4c-3.5-2-8-1.2-10.6,1.9l-5.7,6.7c-3.4,4-9.5,4-12.8,0
		l-5.7-6.7c-2.6-3.1-7.1-3.9-10.6-1.9L80,214c-4.5,2.6-10.3,0.5-12.1-4.4l-3-8.3c-1.4-3.8-5.3-6.1-9.3-5.4l-8.7,1.5
		c-5.1,0.9-9.8-3.1-9.8-8.2l0-8.8c0-4.1-2.9-7.5-6.9-8.2l-8.7-1.6c-5.1-0.9-8.2-6.2-6.4-11.1l3-8.3c1.4-3.8-0.2-8.1-3.7-10.1
		l-7.6-4.4C2.2,134,1.1,128,4.4,124l5.6-6.8c2.6-3.1,2.6-7.6,0-10.8l-5.6-6.8c-3.3-4-2.3-10,2.2-12.6l7.6-4.4c3.5-2,5-6.3,3.7-10.1
		l-3-8.3c-1.8-4.9,1.3-10.2,6.4-11.1l8.7-1.6c4-0.7,6.9-4.2,6.9-8.2l0-8.8c0-5.2,4.7-9.1,9.8-8.2l8.7,1.5c4,0.7,7.9-1.6,9.3-5.4
		l3-8.3c1.8-4.9,7.5-7,12.1-4.4l7.7,4.4c3.5,2,8,1.2,10.6-1.9l5.7-6.7C107.2,1.5,113.4,1.5,116.7,5.5z"/>
</g>
<text id="XMLID_1182_" transform="matrix(0.9898 0.1427 -0.1427 0.9898 25.1528 130.5763)" class="st2 st3 st4 st5">New!</text>
</svg>
