<svg width="334" height="303" viewBox="0 0 334 303" fill="none" xmlns="http://www.w3.org/2000/svg">
<path d="M189.064 25.3522C186.271 19.4532 178.324 18.396 174.086 23.3596L171.553 26.3259C167.699 30.8393 160.608 30.4522 157.269 25.5461L154.679 21.7413C150.976 16.302 142.879 16.5448 139.509 22.1961L137.257 25.9725C134.228 31.0516 127.207 31.8792 123.081 27.6434L120.392 24.8841C115.786 20.156 107.825 21.8311 105.515 28.0148L103.629 33.0623C101.596 38.504 95.017 40.6228 90.1903 37.3902L87.2477 35.4195C81.7876 31.7627 74.3765 35.0007 73.35 41.4916L72.3062 48.0926C71.436 53.5957 65.8254 56.9941 60.5451 55.2165L57.0151 54.0281C50.8604 51.9561 44.6041 56.8857 45.1789 63.3543L45.919 71.6837C46.3762 76.8289 42.4182 81.3024 37.2555 81.4752L32.2319 81.6434C25.9123 81.855 21.7754 88.3461 24.2524 94.164L28.0154 103.002C29.8589 107.332 28.0553 112.352 23.8772 114.518L17.1917 117.984C11.7693 120.795 10.6625 128.076 15.0046 132.372L21.5544 138.852C24.8092 142.072 25.1279 147.222 22.2949 150.819L16.4671 158.218C12.7214 162.973 14.6442 169.996 20.2899 172.18L27.2474 174.872C31.7355 176.608 34.0636 181.568 32.532 186.13L29.3172 195.706C27.3758 201.489 31.628 207.487 37.7275 207.569L43.5419 207.648C48.7323 207.718 52.7873 212.153 52.3943 217.329L51.6983 226.493C51.2265 232.706 57.0587 237.507 63.0654 235.851L67.4545 234.64C72.7771 233.172 78.1545 236.799 78.788 242.284L79.6796 250.004C80.41 256.327 87.2948 259.915 92.8961 256.891L96.3539 255.024C101.393 252.303 107.658 254.918 109.267 260.414L111.134 266.79C112.954 273.008 120.551 275.323 125.53 271.177L128.316 268.858C132.836 265.094 139.692 266.607 142.209 271.922L144.573 276.916C147.367 282.815 155.314 283.872 159.552 278.908L162.085 275.942C165.939 271.429 173.029 271.816 176.369 276.722L178.959 280.527C182.662 285.966 190.759 285.723 194.129 280.072L196.381 276.296C199.41 271.216 206.43 270.389 210.557 274.625L213.245 277.384C217.852 282.112 225.812 280.437 228.122 274.253L230.008 269.206C232.041 263.764 238.621 261.645 243.447 264.878L246.39 266.849C251.85 270.505 259.261 267.267 260.288 260.776L261.331 254.175C262.202 248.672 267.812 245.274 273.092 247.052L276.622 248.24C282.777 250.312 289.033 245.382 288.459 238.914L287.719 230.584C287.261 225.439 291.219 220.966 296.382 220.793L301.406 220.625C307.725 220.413 311.862 213.922 309.385 208.104L305.622 199.266C303.779 194.936 305.582 189.917 309.76 187.75L316.415 184.3C321.846 181.484 322.946 174.186 318.585 169.895L312.121 163.534C308.851 160.317 308.524 155.154 311.363 151.55L317.177 144.169C320.923 139.413 319 132.39 313.355 130.206L306.409 127.519C301.916 125.78 299.588 120.813 301.128 116.248L304.312 106.811C306.263 101.026 302.01 95.0176 295.906 94.935L290.141 94.857C284.939 94.7866 280.88 90.3333 281.291 85.1471L282.012 76.0462C282.505 69.8224 276.665 64.9995 270.647 66.6595L266.269 67.8669C260.957 69.332 255.588 65.7226 254.939 60.2507L254 52.3344C253.252 46.0248 246.378 42.4562 240.787 45.475L237.291 47.3627C232.251 50.0835 225.986 47.4681 224.377 41.9721L222.497 35.5493C220.68 29.3434 213.106 27.0215 208.123 31.1429L205.316 33.465C200.793 37.2058 193.957 35.6861 191.446 30.3814L189.064 25.3522Z" fill="#E4531E"/>
<path d="M189.064 25.3522C186.271 19.4532 178.324 18.396 174.086 23.3596L171.553 26.3259C167.699 30.8393 160.608 30.4522 157.269 25.5461L154.679 21.7413C150.976 16.302 142.879 16.5448 139.509 22.1961L137.257 25.9725C134.228 31.0516 127.207 31.8792 123.081 27.6434L120.392 24.8841C115.786 20.156 107.825 21.8311 105.515 28.0148L103.629 33.0623C101.596 38.504 95.017 40.6228 90.1903 37.3902L87.2477 35.4195C81.7876 31.7627 74.3765 35.0007 73.35 41.4916L72.3062 48.0926C71.436 53.5957 65.8254 56.9941 60.5451 55.2165L57.0151 54.0281C50.8604 51.9561 44.6041 56.8857 45.1789 63.3543L45.919 71.6837C46.3762 76.8289 42.4182 81.3024 37.2555 81.4752L32.2319 81.6434C25.9123 81.855 21.7754 88.3461 24.2524 94.164L28.0154 103.002C29.8589 107.332 28.0553 112.352 23.8772 114.518L17.1917 117.984C11.7693 120.795 10.6625 128.076 15.0046 132.372L21.5544 138.852C24.8092 142.072 25.1279 147.222 22.2949 150.819L16.4671 158.218C12.7214 162.973 14.6442 169.996 20.2899 172.18L27.2474 174.872C31.7355 176.608 34.0636 181.568 32.532 186.13L29.3172 195.706C27.3758 201.489 31.628 207.487 37.7275 207.569L43.5419 207.648C48.7323 207.718 52.7873 212.153 52.3943 217.329L51.6983 226.493C51.2265 232.706 57.0587 237.507 63.0654 235.851L67.4545 234.64C72.7771 233.172 78.1545 236.799 78.788 242.284L79.6796 250.004C80.41 256.327 87.2948 259.915 92.8961 256.891L96.3539 255.024C101.393 252.303 107.658 254.918 109.267 260.414L111.134 266.79C112.954 273.008 120.551 275.323 125.53 271.177L128.316 268.858C132.836 265.094 139.692 266.607 142.209 271.922L144.573 276.916C147.367 282.815 155.314 283.872 159.552 278.908L162.085 275.942C165.939 271.429 173.029 271.816 176.369 276.722L178.959 280.527C182.662 285.966 190.759 285.723 194.129 280.072L196.381 276.296C199.41 271.216 206.43 270.389 210.557 274.625L213.245 277.384C217.852 282.112 225.812 280.437 228.122 274.253L230.008 269.206C232.041 263.764 238.621 261.645 243.447 264.878L246.39 266.849C251.85 270.505 259.261 267.267 260.288 260.776L261.331 254.175C262.202 248.672 267.812 245.274 273.092 247.052L276.622 248.24C282.777 250.312 289.033 245.382 288.459 238.914L287.719 230.584C287.261 225.439 291.219 220.966 296.382 220.793L301.406 220.625C307.725 220.413 311.862 213.922 309.385 208.104L305.622 199.266C303.779 194.936 305.582 189.917 309.76 187.75L316.415 184.3C321.846 181.484 322.946 174.186 318.585 169.895L312.121 163.534C308.851 160.317 308.524 155.154 311.363 151.55L317.177 144.169C320.923 139.413 319 132.39 313.355 130.206L306.409 127.519C301.916 125.78 299.588 120.813 301.128 116.248L304.312 106.811C306.263 101.026 302.01 95.0176 295.906 94.935L290.141 94.857C284.939 94.7866 280.88 90.3333 281.291 85.1471L282.012 76.0462C282.505 69.8224 276.665 64.9995 270.647 66.6595L266.269 67.8669C260.957 69.332 255.588 65.7226 254.939 60.2507L254 52.3344C253.252 46.0248 246.378 42.4562 240.787 45.475L237.291 47.3627C232.251 50.0835 225.986 47.4681 224.377 41.9721L222.497 35.5493C220.68 29.3434 213.106 27.0215 208.123 31.1429L205.316 33.465C200.793 37.2058 193.957 35.6861 191.446 30.3814L189.064 25.3522Z" stroke="#EEE1BF" stroke-width="3" stroke-miterlimit="10"/>
</svg>
