<?xml version="1.0" encoding="utf-8"?>
<!-- Generator: Adobe Illustrator 19.0.0, SVG Export Plug-In . SVG Version: 6.00 Build 0)  -->
<svg version="1.1" id="Layer_1" xmlns="http://www.w3.org/2000/svg" xmlns:xlink="http://www.w3.org/1999/xlink" x="0px" y="0px"
	 width="311.8px" height="244.8px" viewBox="0 0 311.8 244.8" style="enable-background:new 0 0 311.8 244.8;" xml:space="preserve"
	>
<style type="text/css">
	.st0{fill:#538C42;}
	.st1{fill:none;stroke:#EEE1BF;stroke-width:3;stroke-miterlimit:10;}
</style>
<g id="XMLID_151_">
	<g id="XMLID_43_">
		<path id="XMLID_44_" class="st0" d="M179.5,238.2l-19.8-18l-15.1,22.1l-16.4-21.1l-18.8,19l-12.1-23.9L75,231.1l-6.5-25.9
			l-25.2,8.9l0.9-26.7L17.5,188l10.1-24.7l-24.9-9.7L21.8,135l-19-18.7l24.8-9.9L16.4,82.1l26.7-1.7L39,54l26.3,4.9L67,32.3
			l24.8,10.1l6.8-25.9L121.1,31l11.2-24.3l19.8,18l15.1-22.1l16.4,21.1l18.8-19l12.1,23.9l22.3-14.8l6.5,25.9l25.2-8.9l-0.9,26.7
			l26.7-0.6l-10.1,24.7l24.9,9.7L290,109.8l19,18.7l-24.8,9.9l11.2,24.2l-26.7,1.7l4.2,26.4l-26.3-4.9l-1.8,26.7L220,202.4
			l-6.8,25.9l-22.5-14.4L179.5,238.2z"/>
	</g>
	<g id="XMLID_40_">
		<path id="XMLID_41_" class="st1" d="M179.5,238.2l-19.8-18l-15.1,22.1l-16.4-21.1l-18.8,19l-12.1-23.9L75,231.1l-6.5-25.9
			l-25.2,8.9l0.9-26.7L17.5,188l10.1-24.7l-24.9-9.7L21.8,135l-19-18.7l24.8-9.9L16.4,82.1l26.7-1.7L39,54l26.3,4.9L67,32.3
			l24.8,10.1l6.8-25.9L121.1,31l11.2-24.3l19.8,18l15.1-22.1l16.4,21.1l18.8-19l12.1,23.9l22.3-14.8l6.5,25.9l25.2-8.9l-0.9,26.7
			l26.7-0.6l-10.1,24.7l24.9,9.7L290,109.8l19,18.7l-24.8,9.9l11.2,24.2l-26.7,1.7l4.2,26.4l-26.3-4.9l-1.8,26.7L220,202.4
			l-6.8,25.9l-22.5-14.4L179.5,238.2z"/>
	</g>
</g>
</svg>
